<?xml version="1.0" standalone="no"?>
<!DOCTYPE svg PUBLIC "-//W3C//DTD SVG 20010904//EN"
 "http://www.w3.org/TR/2001/REC-SVG-20010904/DTD/svg10.dtd">
<svg version="1.0" xmlns="http://www.w3.org/2000/svg"
 width="1200.000000pt" height="1200.000000pt" viewBox="0 0 1200.000000 1200.000000"
 preserveAspectRatio="xMidYMid meet">

<g transform="translate(0.000000,1200.000000) scale(0.100000,-0.100000)"
fill="#000000" stroke="none">
<path d="M3955 8929 c-75 -18 -220 -69 -285 -102 -322 -162 -538 -464 -620
-868 -11 -53 -20 -111 -20 -127 0 -17 -4 -33 -9 -36 -5 -3 -54 14 -108 38
-198 88 -370 126 -568 126 -193 0 -339 -35 -509 -123 -126 -65 -312 -212 -342
-269 -22 -43 -18 -92 12 -127 33 -40 76 -51 145 -39 30 6 142 10 249 11 166 0
211 -3 300 -22 109 -23 234 -70 273 -101 22 -18 22 -19 2 -25 -833 -280 -1254
-882 -1195 -1708 6 -84 15 -165 22 -180 22 -57 124 -77 172 -34 14 12 57 80
96 151 295 536 656 947 975 1108 65 33 176 78 191 78 2 0 -5 -21 -15 -47 -24
-62 -76 -248 -96 -343 -79 -378 -77 -805 6 -1188 25 -116 40 -147 79 -167 50
-26 97 -20 134 18 l33 32 7 135 c23 446 122 784 306 1041 69 97 206 237 219
223 15 -16 140 -350 211 -564 175 -523 317 -1113 411 -1708 18 -111 30 -205
27 -208 -3 -2 -75 -21 -159 -40 -524 -122 -859 -263 -1030 -433 -75 -75 -111
-146 -117 -233 -5 -66 -4 -68 31 -103 l35 -35 3920 0 3919 0 27 21 c40 31 48
62 36 127 -16 87 -47 141 -129 222 -85 83 -184 146 -341 216 -346 153 -942
290 -1585 365 -99 11 -186 24 -194 28 -8 4 -39 35 -69 69 l-55 62 83 0 c75 0
88 3 129 29 25 16 210 122 411 236 399 227 440 257 485 358 24 53 27 69 23
141 -3 66 -10 92 -33 134 -49 89 -141 152 -246 167 -92 13 -148 -11 -507 -220
l-333 -195 -800 0 c-439 0 -799 3 -799 6 0 13 633 1254 640 1254 18 0 49 -50
55 -90 6 -34 17 -54 47 -82 46 -45 91 -50 145 -17 46 29 102 21 208 -30 105
-51 175 -112 175 -153 0 -65 43 -107 110 -108 85 0 119 36 166 173 73 214 73
480 0 695 -59 171 -182 357 -309 463 -183 153 -351 224 -592 249 -400 42 -826
-181 -1019 -532 -45 -80 -46 -116 -6 -161 40 -46 80 -53 138 -26 43 21 46 21
103 5 87 -24 180 -71 233 -117 38 -33 46 -47 46 -75 0 -26 9 -43 40 -74 34
-34 46 -40 83 -40 25 0 51 8 65 18 25 20 92 18 91 -2 0 -6 -154 -312 -343
-681 l-342 -670 -107 -6 c-87 -5 -116 -11 -160 -33 -142 -69 -216 -231 -173
-379 28 -98 123 -196 212 -219 24 -7 44 -15 44 -18 0 -4 -10 -16 -22 -27 -21
-19 -41 -21 -222 -27 -338 -11 -804 -46 -1150 -86 -93 -11 -170 -19 -171 -18
-1 2 -21 77 -45 168 -135 519 -374 1312 -615 2037 l-153 463 62 19 c148 46
388 52 576 16 255 -49 534 -164 765 -313 58 -38 88 -52 115 -52 82 0 135 92
96 168 -22 43 -291 299 -403 385 -280 213 -652 399 -956 477 -85 22 -87 24
-70 42 56 62 232 154 393 207 284 93 719 131 1125 100 268 -20 279 -20 315 16
34 35 47 86 31 127 -21 57 -275 240 -460 333 -131 65 -251 108 -384 137 -147
32 -437 32 -583 0 -255 -55 -539 -187 -747 -348 -31 -24 -59 -44 -62 -44 -19
0 11 163 48 261 56 148 176 344 296 484 84 97 92 155 31 216 -24 24 -36 29
-77 28 -26 -1 -66 -5 -88 -10z m-253 -376 c-71 -102 -160 -327 -182 -465 -28
-170 7 -401 67 -448 64 -50 102 -40 202 54 365 341 805 501 1211 442 122 -18
270 -63 385 -117 l70 -33 -195 -7 c-449 -17 -790 -88 -1052 -219 -135 -67
-210 -120 -304 -214 -136 -136 -173 -217 -124 -278 25 -32 54 -43 165 -63 122
-21 287 -69 420 -120 117 -45 288 -126 281 -132 -2 -3 -30 1 -63 7 -109 21
-337 24 -461 6 -214 -32 -395 -98 -432 -158 -11 -18 -20 -41 -20 -50 0 -10 67
-219 150 -465 241 -723 431 -1345 611 -2001 45 -161 79 -299 76 -305 -3 -8
-44 -18 -98 -26 -51 -7 -98 -15 -105 -18 -8 -3 -14 16 -19 54 -14 119 -78 485
-122 698 -131 639 -345 1342 -570 1869 -43 100 -79 131 -141 122 -78 -12 -301
-199 -417 -350 -62 -82 -140 -213 -184 -312 -37 -85 -39 -65 -10 106 35 206
117 477 187 615 14 28 25 67 25 89 0 33 -7 45 -38 74 l-38 35 -106 -6 c-425
-22 -859 -348 -1275 -957 l-78 -115 7 64 c16 158 89 361 186 518 75 121 252
299 385 386 177 117 370 199 592 251 114 26 137 41 153 97 17 55 -14 111 -115
206 -157 148 -371 232 -661 259 l-80 7 43 19 c23 10 77 28 118 38 276 71 602
-1 888 -196 97 -67 131 -71 182 -20 l34 34 0 99 c0 384 141 714 385 900 78 59
96 66 67 26z m3587 -1660 c-84 -88 -142 -162 -219 -278 -29 -44 -54 -81 -56
-83 -1 -2 -24 13 -50 33 -52 40 -176 105 -237 125 l-39 12 34 35 c132 138 353
230 562 232 l79 1 -74 -77z m391 -39 c30 -77 -14 -334 -92 -540 l-23 -62 -80
52 c-44 29 -119 68 -167 86 l-88 34 21 35 c79 133 282 356 365 400 50 26 53
26 64 -5z m330 -294 c22 -36 53 -108 71 -160 28 -82 33 -112 37 -222 2 -70 1
-143 -2 -162 l-7 -35 -48 34 c-56 40 -115 68 -222 104 l-76 26 40 105 c44 116
94 303 104 388 l6 56 29 -35 c16 -19 47 -63 68 -99z m1205 -1574 c26 -11 36
-24 46 -56 11 -36 10 -43 -8 -68 -12 -16 -173 -116 -404 -249 l-384 -222
-1068 2 -1069 2 -29 33 c-35 39 -38 81 -6 117 l22 26 1060 2 1060 2 335 195
c310 180 399 230 407 230 2 0 19 -6 38 -14z m-1040 -968 c263 -306 285 -326
350 -314 31 6 77 46 87 77 4 13 60 7 368 -42 677 -107 1216 -270 1418 -430 24
-19 -31 -19 -3664 -19 l-3689 1 30 24 c45 38 189 110 320 160 495 191 1398
343 2350 395 105 5 218 12 253 14 56 3 62 2 56 -13 -4 -9 -9 -32 -12 -52 -3
-30 2 -43 28 -72 37 -42 82 -55 127 -35 17 7 64 51 105 98 41 47 86 99 101
115 15 17 68 78 118 138 l91 107 716 0 717 0 130 -152z"/>
</g>
</svg>
